{"asset":{"version":"2.0","generator":"Blockbench 5.1.4 glTF exporter"},"scenes":[{"nodes":[1],"name":"blockbench_export"}],"scene":0,"nodes":[{"name":"group"},{"translation":[0,-0.125,0.046875],"name":"group","children":[0],"skin":0}],"skins":[{"inverseBindMatrices":0,"joints":[0],"skeleton":0}],"bufferViews":[{"buffer":0,"byteOffset":0,"byteLength":64},{"buffer":0,"byteOffset":64,"byteLength":344},{"buffer":0,"byteOffset":408,"byteLength":1376},{"buffer":0,"byteOffset":1784,"byteLength":344},{"buffer":0,"byteOffset":2128,"byteLength":1032}],"buffers":[{"byteLength":3160,"uri":"data:application/octet-stream;base64,"}],"accessors":[{"bufferView":0,"componentType":5126,"count":1,"max":[1,0,0,0,0,1,0,0,0,0,1,0,0,0,0,1],"min":[1,0,0,0,0,1,0,0,0,0,1,0,0,0,0,1],"type":"MAT4"},{"bufferView":1,"componentType":5126,"count":86,"max":[5],"min":[0],"type":"SCALAR"},{"bufferView":2,"componentType":5126,"count":86,"max":[0,0.13052618503570557,0,1],"min":[0,-0.13052618503570557,0,0.9914448857307434],"type":"VEC4"},{"bufferView":3,"componentType":5126,"count":86,"max":[5],"min":[0],"type":"SCALAR"},{"bufferView":4,"componentType":5126,"count":86,"max":[0,-0.125,0.046875],"min":[0,-0.140625,0.046875],"type":"VEC3"}],"animations":[{"name":"idle","samplers":[{"input":1,"output":2,"interpolation":"LINEAR"},{"input":3,"output":4,"interpolation":"LINEAR"}],"channels":[{"sampler":0,"target":{"node":0,"path":"rotation"}},{"sampler":1,"target":{"node":0,"path":"translation"}}]}]}